<svg xmlns="http://www.w3.org/2000/svg" width="31" height="29" viewBox="0 0 31 29">
    <path fill="#FFF" fill-rule="evenodd" d="M5.9 4.237A12.943 12.943 0 0 1 15.515 0c3.817 0 7.244 1.63 9.606 4.23a13.809 13.809 0 0 1 3.13-.454v4.267C29.903 9.056 31 10.862 31 12.92c0 2.063-1.103 3.871-2.76 4.882l-.017.107C27.533 24.189 22.055 29 15.46 29 8.862 29 3.433 24.102 2.748 17.816 1.097 16.781 0 14.976 0 12.92c0-2.055 1.095-3.857 2.74-4.87V3.774c1.095.031 2.145.192 3.16.462zm3.72 1.615a12.837 12.837 0 0 1 5.876-1.411c2.116 0 4.111.507 5.868 1.407a13.85 13.85 0 0 1 1.285-.71 10.544 10.544 0 0 0-7.148-2.769 10.543 10.543 0 0 0-7.159 2.78c.406.198.886.462 1.279.703zm-.025 2.911a11.314 11.314 0 0 0-4.347-2.246l-.001 9.585v.389c0 5.592 4.573 10.048 10.254 10.048 5.68 0 10.246-4.476 10.246-10.067V6.527a11.241 11.241 0 0 0-4.35 2.233 10.3 10.3 0 0 0-5.9-1.842c-2.198 0-4.233.683-5.902 1.845zm9.058 7.772c1.71-.192 4.577-.17 4.577-.17-.047.505.008 1.994-1.638 2.925-.272.154-.952.371-1.592.4-1.58.071-3.831.09-3.831.09.397-1.767 1.057-3.085 2.484-3.245zm-6.368 0c1.427.16 2.087 1.478 2.484 3.246 0 0-2.252-.02-3.83-.09-.641-.03-1.321-.247-1.593-.401-1.646-.931-1.591-2.42-1.638-2.925 0 0 2.868-.022 4.577.17zm6.211 8.015a5.865 5.865 0 0 1-3.006.813c-1.112 0-2.146-.3-3.007-.813 0 0 .056-.335.233-.59.217-.314.4-.405.4-.405a8.583 8.583 0 0 0 2.374.328c.837 0 1.638-.116 2.372-.328 0 0 .227.121.43.45.187.301.204.545.204.545zm.113-3.474a8.425 8.425 0 0 1-3.147 1.882 8.422 8.422 0 0 1-3.147-1.882h6.294z"/>
</svg>
