<?xml version="1.0" encoding="UTF-8" standalone="no"?>
<svg
   xmlns:dc="http://purl.org/dc/elements/1.1/"
   xmlns:cc="http://creativecommons.org/ns#"
   xmlns:rdf="http://www.w3.org/1999/02/22-rdf-syntax-ns#"
   xmlns:svg="http://www.w3.org/2000/svg"
   xmlns="http://www.w3.org/2000/svg"
   xmlns:sodipodi="http://sodipodi.sourceforge.net/DTD/sodipodi-0.dtd"
   xmlns:inkscape="http://www.inkscape.org/namespaces/inkscape"
   width="16"
   version="1.1"
   id="svg7384"
   height="16"
   sodipodi:docname="social-symbolic.svg"
   inkscape:version="0.92.4 (5da689c313, 2019-01-14)">
  <sodipodi:namedview
     pagecolor="#ffffff"
     bordercolor="#666666"
     borderopacity="1"
     objecttolerance="10"
     gridtolerance="10"
     guidetolerance="10"
     inkscape:pageopacity="0"
     inkscape:pageshadow="2"
     inkscape:window-width="1920"
     inkscape:window-height="1016"
     id="namedview8"
     showgrid="false"
     inkscape:zoom="3.6875"
     inkscape:cx="-5.3828454"
     inkscape:cy="-9.2141268"
     inkscape:window-x="0"
     inkscape:window-y="27"
     inkscape:window-maximized="1"
     inkscape:current-layer="svg7384" />
  <metadata
     id="metadata90">
    <rdf:RDF>
      <cc:Work
         rdf:about="">
        <dc:format>image/svg+xml</dc:format>
        <dc:type
           rdf:resource="http://purl.org/dc/dcmitype/StillImage" />
        <dc:title>Gnome Symbolic Icon Theme</dc:title>
      </cc:Work>
    </rdf:RDF>
  </metadata>
  <title
     id="title9167">Gnome Symbolic Icon Theme</title>
  <defs
     id="defs7386" />
  <g
     transform="translate(-14.169492,-4.3389826)"
     id="g845"
     style="fill:#FFF">
    <path
       id="path1633-7-4"
       transform="translate(14.169492,4.3389826)"
       d="M 13 1 L 13 14 L 14 14 L 14 9.1542969 L 15.734375 8.4589844 C 15.895725 8.3945844 15.99996 8.2401563 16 8.0664062 L 16 6.9335938 C 15.99996 6.7598437 15.895835 6.6054956 15.734375 6.5410156 L 14 5.8457031 L 14 1 L 13 1 z M 12 2 C 11.11941 2.87266 6.2504606 5 4.1503906 5 L 4 5 L 4 10 L 4.0136719 10.001953 C 4.0136645 10.047172 4.0063894 10.090465 4.0195312 10.136719 L 5.0195312 13.636719 C 5.0806113 13.85151 5.276694 13.99977 5.5 14 L 6.5 14 C 6.83277 14.000011 7.0727177 13.681056 6.9804688 13.361328 L 6.1210938 10.353516 C 8.420753 10.986667 11.337837 12.34289 12 13 L 12 2 z M 2 5 A 1 1 0 0 0 1 6 L 1 9 A 1 1 0 0 0 2 10 L 3 10 L 3 9 L 3 6 L 3 5 L 2 5 z "
       style="display:inline;fill:#FFF;fill-opacity:1;stroke:none;stroke-width:0.1px;stroke-linecap:butt;stroke-linejoin:miter;stroke-opacity:1;enable-background:new" />
  </g>
</svg>
