<svg height="58" viewBox="0 0 58 58" width="58" xmlns="http://www.w3.org/2000/svg"><g fill="#c3c3c3" fill-rule="evenodd"><path d="m28.753.155c-15.793 0-28.598 12.775-28.598 28.535 0 15.759 12.804 28.534 28.598 28.534 15.795 0 28.598-12.775 28.598-28.534 0-15.76-12.803-28.535-28.598-28.535m0 1.712a26.762 26.762 0 0 1 15.03 4.58 27.062 27.062 0 0 1 7.263 7.247 26.798 26.798 0 0 1 2.478 4.555 26.6 26.6 0 0 1 2.111 10.44 26.6 26.6 0 0 1 -2.111 10.44 26.798 26.798 0 0 1 -5.762 8.527 26.895 26.895 0 0 1 -8.545 5.75 26.762 26.762 0 0 1 -10.464 2.106 26.76 26.76 0 0 1 -15.029-4.58 27.062 27.062 0 0 1 -7.263-7.247 26.815 26.815 0 0 1 -2.478-4.555 26.6 26.6 0 0 1 -2.113-10.44 26.6 26.6 0 0 1 2.112-10.44 26.815 26.815 0 0 1 5.762-8.527 26.888 26.888 0 0 1 8.545-5.75 26.76 26.76 0 0 1 10.463-2.106"/><path d="m49.667 17.281c.102.758.16 1.57.16 2.445 0 2.412-.453 5.125-1.813 8.517l-7.279 20.999c7.085-4.122 11.85-11.78 11.85-20.553 0-4.134-1.059-8.021-2.918-11.408zm-20.495 13.489-7.151 20.73a23.87 23.87 0 0 0 6.732.97c2.776 0 5.438-.478 7.915-1.349a2.15 2.15 0 0 1 -.171-.327zm15.67-3.28c0-2.94-1.059-4.974-1.965-6.557-1.208-1.96-2.34-3.618-2.34-5.577 0-2.186 1.66-4.22 4.001-4.22.106 0 .206.012.309.019a23.772 23.772 0 0 0 -16.094-6.245c-8.326 0-15.65 4.262-19.912 10.717.56.018 1.087.029 1.534.029 2.492 0 6.352-.302 6.352-.302 1.284-.075 1.436 1.808.152 1.96 0 0-1.291.15-2.727.225l8.678 25.757 5.216-15.606-3.713-10.15c-1.284-.076-2.5-.227-2.5-.227-1.284-.075-1.133-2.034.152-1.96 0 0 3.935.303 6.276.303 2.492 0 6.353-.302 6.353-.302 1.284-.075 1.435 1.808.151 1.96 0 0-1.292.15-2.727.225l8.613 25.561 2.458-7.773c1.092-3.397 1.733-5.804 1.733-7.839zm-39.92 1.2c0 9.412 5.481 17.546 13.432 21.4l-11.369-31.078a23.641 23.641 0 0 0 -2.063 9.677z"/></g></svg>