<svg id="Layer_1" data-name="Layer 1" xmlns="http://www.w3.org/2000/svg" viewBox="0 0 80.884 70.094"><defs><style>.cls-1{fill:#fff;}</style></defs><title>photo_gallery_icon</title><path class="cls-1" d="M83.192,34.631H36.486a7.258,7.258,0,0,0-7.25,7.25V77.8a7.258,7.258,0,0,0,7.25,7.25H83.192a7.258,7.258,0,0,0,7.25-7.25V41.881A7.259,7.259,0,0,0,83.192,34.631ZM85.942,77.8a2.754,2.754,0,0,1-2.75,2.75H36.486a2.754,2.754,0,0,1-2.75-2.75V41.881a2.754,2.754,0,0,1,2.75-2.75H83.192a2.754,2.754,0,0,1,2.75,2.75Z" transform="translate(-9.558 -14.953)"/><path class="cls-1" d="M14.058,58.118V22.2a2.753,2.753,0,0,1,2.75-2.75H63.514a2.753,2.753,0,0,1,2.75,2.75v6.61h4.5V22.2a7.258,7.258,0,0,0-7.25-7.25H16.808a7.258,7.258,0,0,0-7.25,7.25V58.118a7.258,7.258,0,0,0,7.25,7.25h5.069v-4.5H16.808A2.753,2.753,0,0,1,14.058,58.118Z" transform="translate(-9.558 -14.953)"/></svg>