<svg width="488" height="155" viewBox="0 0 488 155" fill="none" xmlns="http://www.w3.org/2000/svg">
<path d="M82.1653 88.7704L95.0512 106.874C95.196 107.093 95.0512 107.458 94.7616 107.458H84.1199C83.9752 107.458 83.9028 107.385 83.8304 107.312L71.958 90.4493" fill="#333333"/>
<path d="M126.904 107.531C123.719 107.531 120.823 106.947 118.072 105.852C115.321 104.684 113.005 103.151 111.05 101.18C109.095 99.2089 107.503 96.873 106.417 94.2451C105.331 91.6173 104.752 88.7704 104.752 85.7775V85.6315C104.752 82.5657 105.331 79.7918 106.417 77.0909C107.575 74.463 109.095 72.1272 111.05 70.0832C113.005 68.1123 115.394 66.5064 118.072 65.3385C120.823 64.1705 123.719 63.5865 126.976 63.5865C130.162 63.5865 133.13 64.1705 135.881 65.2655C138.632 66.4334 140.948 67.9663 142.903 69.9373C144.857 71.9082 146.45 74.2441 147.536 76.8719C148.622 79.4998 149.201 82.3467 149.201 85.3395V85.4855C149.201 88.4784 148.622 91.2523 147.536 93.9531C146.378 96.581 144.857 98.9169 142.903 100.961C140.948 102.932 138.559 104.538 135.808 105.706C133.13 106.947 130.089 107.531 126.904 107.531ZM127.049 99.0629C129.003 99.0629 130.741 98.6979 132.333 97.968C133.854 97.238 135.229 96.289 136.315 95.1211C137.401 93.9531 138.27 92.4932 138.849 90.8873C139.428 89.2814 139.718 87.5294 139.718 85.7775V85.6315C139.718 83.8066 139.428 81.9817 138.776 80.3758C138.125 78.6968 137.256 77.3099 136.098 76.069C134.94 74.828 133.637 73.8791 132.044 73.1491C130.524 72.4191 128.786 72.0542 126.832 72.0542C124.949 72.0542 123.212 72.4191 121.619 73.1491C120.099 73.8791 118.724 74.828 117.638 75.996C116.552 77.1639 115.683 78.6239 115.104 80.2298C114.525 81.9087 114.235 83.5876 114.235 85.4125V85.5585C114.235 87.4564 114.525 89.1354 115.176 90.8143C115.828 92.4202 116.697 93.8801 117.855 95.0481C119.013 96.289 120.316 97.238 121.909 97.968C123.502 98.6979 125.239 99.0629 127.049 99.0629Z" fill="#333333"/>
<path d="M199.803 107.531C196.618 107.531 193.722 106.947 190.971 105.852C188.22 104.684 185.904 103.151 183.949 101.18C181.995 99.2089 180.402 96.873 179.316 94.2451C178.23 91.6173 177.651 88.7704 177.651 85.7775V85.6315C177.651 82.5657 178.23 79.7918 179.316 77.0909C180.474 74.463 181.995 72.1272 183.949 70.0832C185.904 68.1123 188.293 66.5064 190.971 65.3385C193.722 64.1705 196.618 63.5865 199.876 63.5865C203.061 63.5865 206.029 64.1705 208.78 65.2655C211.531 66.4334 213.847 67.9663 215.802 69.9373C217.757 71.9082 219.349 74.2441 220.435 76.8719C221.521 79.4998 222.1 82.3467 222.1 85.3395V85.4855C222.1 88.4784 221.521 91.2523 220.435 93.9531C219.277 96.581 217.757 98.9169 215.802 100.961C213.847 102.932 211.458 104.538 208.707 105.706C205.957 106.947 202.988 107.531 199.803 107.531ZM199.948 99.0629C201.903 99.0629 203.64 98.6979 205.233 97.968C206.753 97.238 208.128 96.289 209.214 95.1211C210.3 93.9531 211.169 92.4932 211.748 90.8873C212.327 89.2814 212.617 87.5294 212.617 85.7775V85.6315C212.617 83.8066 212.327 81.9817 211.676 80.3758C211.024 78.6968 210.155 77.3099 208.997 76.069C207.839 74.828 206.536 73.8791 204.943 73.1491C203.423 72.4191 201.685 72.0542 199.731 72.0542C197.849 72.0542 196.111 72.4191 194.519 73.1491C192.998 73.8791 191.623 74.828 190.537 75.996C189.451 77.1639 188.582 78.6239 188.003 80.2298C187.424 81.9087 187.135 83.5876 187.135 85.4125V85.5585C187.135 87.4564 187.424 89.1354 188.076 90.8143C188.727 92.4202 189.596 93.8801 190.754 95.0481C191.912 96.289 193.216 97.238 194.808 97.968C196.401 98.6979 198.138 99.0629 199.948 99.0629Z" fill="#333333"/>
<path d="M212.617 52.053V107.092C212.617 107.311 212.761 107.457 212.979 107.457H221.811C222.028 107.457 222.172 107.311 222.172 107.092V52.053C222.172 51.834 222.028 51.688 221.811 51.688H212.979C212.761 51.688 212.617 51.834 212.617 52.053Z" fill="#333333"/>
<path d="M75.8673 87.0914H53.9324V95.559H76.736C79.6317 95.486 82.2378 94.829 84.7716 93.8071C87.5225 92.6391 89.839 91.0332 91.866 89.0623C93.8206 87.0914 95.4133 84.7555 96.4992 82.0546C97.6574 79.4268 98.1642 76.5799 98.1642 73.587V73.441C98.1642 70.3752 97.585 67.6013 96.4992 64.9734C95.4133 62.3456 93.8206 60.0097 91.866 58.0388C89.9114 56.0678 87.5225 54.4619 84.844 53.367C82.3102 52.345 79.6317 51.761 76.736 51.688H54.2943C54.0772 51.688 53.9324 51.834 53.9324 52.053V59.7907C53.9324 60.0097 54.0772 60.1557 54.2943 60.1557H75.7949H75.9397C77.8219 60.1557 79.4869 60.5206 81.0072 61.2506C82.5274 61.9806 83.9029 62.9295 85.0611 64.1705C86.2194 65.4114 87.0881 66.7983 87.7397 68.4773C88.3912 70.1562 88.6808 71.9081 88.6808 73.733V73.879C88.6808 75.7039 88.3912 77.3829 87.8121 78.9888C87.2329 80.5947 86.3642 82.0546 85.2783 83.2226C84.1924 84.3905 82.817 85.3395 81.2967 86.0695C79.7765 86.7994 77.9667 87.1644 76.0121 87.1644" fill="#333333"/>
<path d="M54.2943 68.5503H63.271C63.4882 68.5503 63.633 68.6963 63.633 68.9153V107.092C63.633 107.311 63.4882 107.457 63.271 107.457H54.2943C54.0772 107.457 53.9324 107.311 53.9324 107.092V68.9153C53.9324 68.6963 54.0772 68.5503 54.2943 68.5503Z" fill="#333333"/>
<path d="M158.684 68.5503H167.661C167.878 68.5503 168.023 68.6963 168.023 68.9153V107.092C168.023 107.311 167.878 107.457 167.661 107.457H158.684C158.467 107.457 158.323 107.311 158.323 107.092V68.9153C158.323 68.6963 158.54 68.5503 158.684 68.5503Z" fill="#333333"/>
<path d="M163.173 62.0536C166.011 62.0536 168.313 59.7332 168.313 56.8708C168.313 54.0084 166.011 51.688 163.173 51.688C160.334 51.688 158.033 54.0084 158.033 56.8708C158.033 59.7332 160.334 62.0536 163.173 62.0536Z" fill="#333333"/>
<path d="M0.723925 78.5508L12.3791 107.019C12.4515 107.238 12.3067 107.53 12.0172 107.53H0.361962C0.144785 107.53 0 107.384 0 107.165V78.6968C0 78.3318 0.57914 78.1858 0.723925 78.5508ZM33.9521 51.6151H1.23067C0.941102 51.6151 0.796317 51.907 0.86871 52.126L17.0122 93.5881C17.157 93.8801 17.5914 93.8801 17.7362 93.5881L33.9521 51.6151ZM22.5141 107.53H43.9422C44.1594 107.53 44.3042 107.384 44.3042 107.165V54.6079C44.3042 54.1699 43.7251 54.0969 43.5803 54.4619L22.1521 107.019C22.0073 107.238 22.2245 107.53 22.5141 107.53Z" fill="#333333"/>
<path d="M474.316 106.727C466.425 106.727 462.516 98.9168 462.516 92.3471C462.516 79.7187 471.565 74.463 475.836 74.463C477.284 74.463 478.804 74.6819 479.962 76.2149C482.713 76.2149 487.274 77.3098 487.998 89.3543C488.143 97.3839 481.265 106.727 474.316 106.727ZM478.732 80.6677C472.723 80.6677 467.149 89.6463 467.149 95.486C467.149 98.9168 469.031 100.231 470.986 100.231C474.171 100.231 478.37 97.1649 479.745 94.61C481.265 91.7632 482.351 86.7994 482.351 83.8065C482.351 83.5145 482.351 83.2225 482.351 82.9306C482.134 80.8137 479.89 80.6677 478.732 80.6677Z" fill="#0096FA"/>
<path d="M328.952 72.7841C323.956 72.7841 319.83 73.0761 316.428 73.5871C316.428 71.6892 316.428 40.1546 316.355 38.7677C315.921 35.3369 315.125 34.4609 312.518 34.3879C310.419 34.3149 310.564 35.0449 310.347 40.3006C310.274 41.6876 310.274 73.0761 310.274 74.755C305.714 75.777 302.745 77.0179 300.212 77.4559C298.112 77.8209 295.144 77.2369 295.144 78.6969C295.289 79.8648 298.257 81.9087 300.574 81.9087C303.18 81.9087 310.274 79.7188 310.274 79.8648C310.274 80.0108 309.912 85.7775 309.912 99.0629C309.912 102.129 309.985 104.465 310.13 104.611C310.853 107.02 312.88 107.677 314.328 107.677C315.125 107.677 315.704 107.458 315.776 107.166C316.138 105.414 316.066 82.4927 316.5 79.4998C316.717 77.9669 330.544 76.653 331.341 75.558C331.485 75.339 331.558 75.12 331.558 74.901C331.558 74.828 331.558 74.755 331.558 74.6821C331.485 73.7331 330.327 72.7841 328.952 72.7841Z" fill="#0096FA"/>
<path d="M332.788 90.9602C333.874 95.267 335.249 102.348 338.941 105.122C343.574 108.625 347.484 102.421 349.728 99.0629C351.176 96.873 354.288 93.5881 354.94 91.1062C355.157 90.2303 356.967 89.8653 354.361 90.1573C351.899 90.4493 353.565 90.1573 353.782 91.4712C353.999 92.7852 355.085 94.3181 355.664 95.486C357.184 98.9169 360.152 106.582 365.147 103.005C368.043 100.961 364.206 97.9679 361.745 99.7198C363.989 100.231 364.568 100.012 363.482 99.0629C363.193 98.5519 362.831 98.0409 362.614 97.5299C361.89 96.362 361.383 95.048 360.804 93.7341C359.935 91.8362 359.211 89.5733 357.98 87.8944C355.736 84.9015 353.058 85.7775 350.814 88.2594C347.556 92.0552 345.891 97.8219 342.054 101.034C341.547 101.399 341.692 101.545 342.633 101.399C342.199 100.815 341.837 100.231 341.547 99.5738C341.041 98.0409 340.172 96.508 339.665 94.9751C339.086 93.2231 338.579 91.4712 338.145 89.7193C337.349 87.0914 332.064 88.1134 332.788 90.9602Z" fill="#0096FA"/>
<path d="M448.254 90.9603C447.82 99.6469 446.807 106.144 445.431 106.071C444.273 105.998 443.332 103.589 442.897 102.421C442.029 100.085 442.029 91.1063 442.318 85.1205C442.608 79.9378 442.535 79.2078 444.562 79.2808C447.096 79.4268 447.892 80.3028 448.327 83.6606C448.399 85.6315 448.399 88.1864 448.254 90.9603Z" fill="#0096FA"/>
<path d="M445.72 59.2797C443.621 59.2797 439.06 60.5937 439.06 66.0684C439.06 68.9153 440.943 72.2731 444.707 72.2731C448.037 72.2731 451.367 68.2583 451.367 64.8275C451.077 59.5717 446.444 59.2797 445.72 59.2797Z" fill="#0096FA"/>
<path d="M301.587 0.225441C283.706 5.77318 266.115 16.9417 253.157 30.373C242.298 41.6875 228.399 63.2945 241.502 77.8208C251.13 88.5513 266.043 90.3033 278.567 95.705C284.503 98.2599 286.385 102.859 283.851 108.99C281.317 115.341 276.178 120.743 271.472 125.561C261.627 135.707 250.333 144.467 239.04 152.934C235.855 155.343 242.877 155.489 244.614 154.175C259.744 142.861 276.901 130.524 287.543 114.465C290.873 109.428 294.638 102.056 290.077 96.581C288.267 94.3911 285.516 93.1501 282.91 92.2012C276.54 89.7923 269.879 88.0404 263.581 85.4125C257.066 82.6386 250.044 79.0618 246.062 72.8571C240.633 64.5355 244.18 53.878 248.379 45.7753C259.021 25.4823 282.62 9.642 304.049 2.99931C308.971 1.53938 304.773 -0.723515 301.587 0.225441Z" fill="#0096FA"/>
<path d="M425.523 70.5212C424.147 76.2149 418.356 81.6897 412.564 86.2155C412.564 71.9081 412.564 73.5141 412.564 58.9147C412.564 57.8198 412.564 45.8483 412.564 37.2347C412.564 36.7968 412.564 36.3588 412.564 35.8478C412.564 31.906 412.564 28.9131 412.492 28.4751C412.13 25.4823 411.406 24.7523 409.162 24.6063C407.352 24.5333 407.425 25.1903 407.28 29.7891C407.28 29.9351 407.28 30.592 407.28 31.468C407.28 32.344 407.28 33.2199 407.28 34.0959C407.28 42.1985 407.207 58.6957 407.207 59.7907H407.28C407.28 75.047 407.28 74.244 407.28 90.0113C405.904 90.9602 404.601 91.8362 403.443 92.5662C402.574 93.1501 401.054 94.0991 399.244 95.194C397.579 93.4421 395.842 91.6902 394.032 90.1573C388.964 85.8505 373.038 78.7698 374.341 91.8362C375.355 102.202 386.793 107.822 395.697 104.465C397.652 103.735 399.534 102.859 401.416 101.837C403.66 104.903 405.687 108.041 407.569 111.326C407.859 111.91 412.637 116.436 412.637 114.611C412.637 107.53 412.637 100.961 412.637 94.5371C413.433 93.9531 414.229 93.2961 415.026 92.6392C420.455 88.3324 429.215 81.7627 430.88 74.609C431.314 73.0761 425.957 68.9883 425.523 70.5212ZM379.553 94.6831C379.771 90.3763 383.752 88.6974 387.589 89.5003C391.353 90.3763 394.466 93.5151 397 96.435C389.544 100.45 378.974 104.319 379.553 94.6831ZM407.28 105.56C406.194 103.881 405.036 102.275 403.805 100.669C404.963 100.012 406.121 99.2819 407.28 98.4789C407.28 100.815 407.28 103.151 407.28 105.56Z" fill="#0096FA"/>
</svg>
