<svg width="492" height="60" viewBox="0 0 492 60" fill="none" xmlns="http://www.w3.org/2000/svg">
<path d="M142.105 18.1754C140.14 16.2105 137.824 14.6667 135.088 13.5439C132.421 12.4211 129.474 11.8596 126.246 11.8596C123.017 11.8596 120.07 12.4211 117.403 13.614C114.737 14.7368 112.351 16.3509 110.386 18.3158C108.421 20.2807 106.877 22.5965 105.754 25.193C104.631 27.7895 104.07 30.6667 104.07 33.614V33.7544C104.07 36.7017 104.631 39.5088 105.754 42.1053C106.877 44.7017 108.421 47.0175 110.386 48.9825C112.351 50.9474 114.667 52.4912 117.403 53.614C120.07 54.7368 123.017 55.2982 126.175 55.2982C129.403 55.2982 132.351 54.7368 135.088 53.5439C137.824 52.421 140.14 50.807 142.105 48.8421C144.07 46.8772 145.614 44.5614 146.737 41.9649C147.86 39.3684 148.421 36.5614 148.421 33.614V33.4737C148.421 30.4561 147.86 27.6491 146.737 25.0526C145.614 22.4561 144.07 20.1404 142.105 18.1754ZM138.877 33.7544C138.877 35.5088 138.596 37.2632 138.035 38.807C137.474 40.421 136.631 41.8246 135.509 43.0175C134.386 44.2105 133.053 45.1228 131.509 45.8246C129.965 46.5263 128.21 46.8772 126.316 46.8772C124.491 46.8772 122.807 46.5263 121.263 45.8246C119.719 45.1228 118.386 44.1403 117.263 42.9474C116.14 41.7544 115.228 40.3509 114.596 38.7368C113.965 37.1228 113.684 35.4386 113.684 33.5439V33.4035C113.684 31.6491 113.965 29.8947 114.526 28.2807C115.088 26.6667 115.93 25.2632 117.053 24.0702C118.175 22.8772 119.509 21.9649 121.053 21.2632C122.596 20.5614 124.281 20.2105 126.175 20.2105C128.07 20.2105 129.754 20.5614 131.298 21.2632C132.842 21.9649 134.175 22.9474 135.298 24.1404C136.421 25.3333 137.333 26.7368 137.965 28.4211C138.596 30.0351 138.877 31.7895 138.877 33.614V33.7544Z" fill="#333333"/>
<path d="M219.93 0H211.158C210.948 0 210.807 0.140351 210.807 0.350877V15.4386C209.684 14.6667 208.421 14.0351 207.088 13.4737C204.421 12.3509 201.474 11.7895 198.246 11.7895C195.018 11.7895 192.07 12.3509 189.404 13.5439C186.737 14.6667 184.351 16.2807 182.386 18.2456C180.421 20.2105 178.877 22.5263 177.755 25.1228C176.632 27.7193 176.07 30.5965 176.07 33.5439V33.6842C176.07 36.6316 176.632 39.4386 177.755 42.0351C178.877 44.6316 180.421 46.9474 182.386 48.9123C184.351 50.8772 186.667 52.4211 189.404 53.5439C192.07 54.6667 195.018 55.2281 198.176 55.2281C201.404 55.2281 204.351 54.6667 207.088 53.4737C208.491 52.9123 209.755 52.2105 210.948 51.3684V54.7368C210.948 54.9474 211.088 55.0877 211.298 55.0877H220.07C220.281 55.0877 220.421 54.9474 220.421 54.7368V0.421053C220.351 0.210526 220.14 0 219.93 0ZM209.965 38.807C209.404 40.421 208.562 41.8246 207.439 43.0175C206.316 44.2105 204.983 45.1228 203.439 45.8246C201.895 46.5263 200.14 46.8772 198.246 46.8772C196.421 46.8772 194.737 46.5263 193.193 45.8246C191.649 45.1228 190.316 44.1403 189.193 42.9474C188.07 41.7544 187.158 40.3509 186.526 38.7368C185.895 37.1228 185.614 35.4386 185.614 33.5439V33.4035C185.614 31.6491 185.895 29.8947 186.456 28.2807C187.018 26.6667 187.86 25.2632 188.983 24.0702C190.105 22.8772 191.439 21.9649 192.983 21.2632C194.526 20.5614 196.211 20.2105 198.105 20.2105C200 20.2105 201.684 20.5614 203.228 21.2632C204.772 21.9649 206.105 22.9474 207.228 24.1404C208.351 25.3333 209.263 26.7368 209.895 28.4211C210.526 30.0351 210.807 31.7895 210.807 33.614V33.7544C210.807 35.5088 210.526 37.193 209.965 38.807Z" fill="#333333"/>
<path d="M91.3684 6.31579C89.4035 4.35088 87.0877 2.80702 84.3508 1.68421C81.8947 0.631579 79.1579 0.0701754 76.2807 0H53.9649C53.7544 0 53.614 0.140351 53.614 0.350877V8C53.614 8.21053 53.7544 8.35088 53.9649 8.35088H75.3684H75.5087C77.3333 8.35088 79.0175 8.70175 80.5614 9.40351C82.1052 10.1053 83.4386 11.0877 84.5614 12.2807C85.6842 13.4737 86.5965 14.8772 87.228 16.5614C87.8596 18.1754 88.1403 19.9298 88.1403 21.7544V21.8947C88.1403 23.6491 87.8596 25.4035 87.2982 26.9474C86.7368 28.5614 85.8947 29.9649 84.7719 31.1579C83.6491 32.3509 82.3158 33.2632 80.7719 33.9649C79.228 34.6667 77.4737 35.0175 75.5789 35.0175H75.4386H63.2982V17.1228C63.2982 16.9123 63.1579 16.7719 62.9473 16.7719H53.9649C53.7544 16.7719 53.614 16.9123 53.614 17.1228V54.8772C53.614 55.0877 53.7544 55.2281 53.9649 55.2281H62.8772C63.0877 55.2281 63.228 55.0877 63.228 54.8772V43.4386H75.0877L83.2982 55.0175C83.3684 55.0877 83.5087 55.1579 83.5789 55.1579H94.1754C94.4561 55.1579 94.6666 54.807 94.4561 54.5965L84.9123 41.3333C87.2982 40.2105 89.4737 38.807 91.228 36.9825C93.193 35.0175 94.7368 32.7018 95.8596 30.1053C96.9824 27.5088 97.5438 24.7018 97.5438 21.7544V21.614C97.5438 18.5965 96.9824 15.7895 95.8596 13.193C94.8772 10.5965 93.3333 8.35088 91.3684 6.31579Z" fill="#333333"/>
<path d="M166.667 16.7018H157.754C157.544 16.7018 157.404 16.8421 157.404 17.0526V54.807C157.404 55.0175 157.544 55.1579 157.754 55.1579H166.667C166.877 55.1579 167.018 55.0175 167.018 54.807V17.1228C167.088 16.9123 166.877 16.7018 166.667 16.7018Z" fill="#333333"/>
<path d="M162.246 0C159.439 0 157.123 2.31579 157.123 5.12281C157.123 7.92982 159.439 10.2456 162.246 10.2456C165.053 10.2456 167.368 7.92982 167.368 5.12281C167.298 2.31579 165.053 0 162.246 0Z" fill="#333333"/>
<path d="M0.701754 26.6667C0.561403 26.3158 0 26.386 0 26.807V54.9474C0 55.1579 0.140351 55.2983 0.350877 55.2983H11.9298C12.2105 55.2983 12.3509 55.0176 12.2807 54.807L0.701754 26.6667Z" fill="#333333"/>
<path d="M43.2981 2.807L22.035 54.7368C21.9648 54.9473 22.1051 55.228 22.3859 55.228H43.649C43.8595 55.228 43.9999 55.0877 43.9999 54.8772V2.94735C43.9999 2.59648 43.4385 2.45613 43.2981 2.807Z" fill="#333333"/>
<path d="M1.26323 0C0.982525 0 0.771999 0.280702 0.912349 0.491228L16.9123 41.4737C17.0527 41.7544 17.4738 41.7544 17.6141 41.4737L33.5439 0.491228C33.6843 0.280702 33.4738 0 33.1931 0H1.26323Z" fill="#333333"/>
<path d="M337.544 18.1754C335.579 16.2105 333.263 14.6667 330.526 13.5439C327.86 12.4211 324.912 11.8596 321.684 11.8596C318.456 11.8596 315.509 12.4211 312.842 13.614C310.175 14.7368 307.789 16.3509 305.825 18.3158C303.86 20.2807 302.316 22.5965 301.193 25.193C300.07 27.7895 299.509 30.6667 299.509 33.614V33.7544C299.509 36.7017 300.07 39.5088 301.193 42.1053C302.316 44.7017 303.86 47.0175 305.825 48.9825C307.789 50.9474 310.105 52.4912 312.842 53.614C315.509 54.7368 318.456 55.2982 321.614 55.2982C324.842 55.2982 327.79 54.7368 330.526 53.5439C333.263 52.421 335.579 50.807 337.544 48.8421C339.509 46.8772 341.053 44.5614 342.176 41.9649C343.298 39.3684 343.86 36.5614 343.86 33.614V33.4737C343.86 30.4561 343.298 27.6491 342.176 25.0526C341.053 22.4561 339.509 20.1404 337.544 18.1754ZM334.246 33.7544C334.246 35.5088 333.965 37.2632 333.404 38.807C332.842 40.421 332 41.8246 330.877 43.0175C329.754 44.2105 328.421 45.1228 326.877 45.8246C325.333 46.5263 323.579 46.8772 321.684 46.8772C319.86 46.8772 318.175 46.5263 316.632 45.8246C315.088 45.1228 313.754 44.1403 312.632 42.9474C311.509 41.7544 310.597 40.3509 309.965 38.7368C309.333 37.1228 309.053 35.4386 309.053 33.5439V33.4035C309.053 31.6491 309.333 29.8947 309.895 28.2807C310.456 26.6667 311.298 25.2632 312.421 24.0702C313.544 22.8772 314.877 21.9649 316.421 21.2632C317.965 20.5614 319.649 20.2105 321.544 20.2105C323.439 20.2105 325.123 20.5614 326.667 21.2632C328.211 21.9649 329.544 22.9474 330.667 24.1404C331.79 25.3333 332.702 26.7368 333.333 28.4211C333.965 30.0351 334.246 31.7895 334.246 33.614V33.7544Z" fill="#FFF500"/>
<path d="M434.667 0.421039V55.1579C434.667 55.3684 434.526 55.5087 434.316 55.5087H425.123C424.912 55.5087 424.772 55.3684 424.772 55.1579V0.421039C424.772 0.210512 424.912 0.0701616 425.123 0.0701616H434.316C434.456 -1.38655e-05 434.667 0.210512 434.667 0.421039Z" fill="#FFF500"/>
<path d="M453.474 37.2632C453.544 38.807 454.175 40.421 455.368 41.9649C456.561 43.5088 458.105 44.8421 460 45.8246C461.895 46.8772 463.789 47.3684 465.684 47.3684C469.404 47.3684 472.702 45.7544 475.649 42.5965L481.754 48.8421C479.368 51.2982 476.842 53.0526 474.246 54.2456C471.579 55.4386 468.702 56 465.474 56C461.404 56 457.684 55.0175 454.386 53.0526C451.018 51.0877 448.421 48.421 446.456 45.0526C444.491 41.6842 443.509 37.9649 443.509 33.8246V33.6842C443.509 29.614 444.491 25.8947 446.456 22.4561C448.421 19.0175 451.018 16.2807 454.386 14.3158C457.754 12.2807 461.474 11.2982 465.614 11.2982C469.614 11.2982 473.263 12.2807 476.632 14.3158C479.93 16.3509 482.597 18.9474 484.491 22.3158C486.386 25.614 487.368 29.1228 487.368 32.8421C487.368 34.3158 487.228 35.7895 486.877 37.2632H453.474ZM473.404 22.5263C471.439 20.8421 468.912 19.9298 465.684 19.9298C462.386 19.9298 459.719 20.7719 457.754 22.5263C455.789 24.2105 454.456 26.3158 453.825 28.7719H477.404C476.702 26.386 475.368 24.2807 473.404 22.5263Z" fill="#FFF500"/>
<path d="M352.772 0.421039V54.807C352.772 55.0175 352.912 55.1579 353.123 55.1579H361.895C362.105 55.1579 362.246 55.0175 362.246 54.807V51.4386C363.439 52.2105 364.702 52.9123 366.105 53.5438C368.842 54.6667 371.79 55.2982 375.018 55.2982C378.176 55.2982 381.053 54.7368 383.79 53.614C386.456 52.4912 388.842 50.9474 390.807 48.9824C392.772 47.0175 394.316 44.7719 395.439 42.1052C396.561 39.5088 397.123 36.7017 397.123 33.7544V33.614C397.123 30.5965 396.561 27.7895 395.439 25.193C394.316 22.5965 392.772 20.2807 390.807 18.3158C388.842 16.3509 386.526 14.807 383.79 13.614C381.123 12.4912 378.175 11.8596 374.947 11.8596C371.719 11.8596 368.772 12.421 366.105 13.5438C364.772 14.1052 363.509 14.7368 362.386 15.5088V0.421039C362.386 0.210512 362.246 0.0701616 362.035 0.0701616H353.263C352.912 -1.38693e-05 352.772 0.210512 352.772 0.421039ZM362.316 33.7544V33.614C362.316 31.7895 362.597 30.0351 363.228 28.421C363.86 26.807 364.702 25.4035 365.895 24.1403C367.018 22.9474 368.351 21.9649 369.895 21.2631C371.439 20.5614 373.123 20.2105 375.018 20.2105C376.912 20.2105 378.597 20.5614 380.14 21.2631C381.684 21.9649 383.018 22.9474 384.14 24.0702C385.263 25.2631 386.105 26.6667 386.667 28.2807C387.228 29.8947 387.509 31.6491 387.509 33.4035V33.5438C387.509 35.3684 387.228 37.1228 386.597 38.7368C385.965 40.3509 385.123 41.7544 383.93 42.9474C382.807 44.1403 381.474 45.1228 379.93 45.8245C378.386 46.5263 376.702 46.8772 374.877 46.8772C372.912 46.8772 371.228 46.5263 369.684 45.8245C368.14 45.1228 366.807 44.1403 365.684 43.0175C364.561 41.8245 363.719 40.421 363.158 38.807C362.597 37.193 362.316 35.5088 362.316 33.7544Z" fill="#FFF500"/>
<path d="M415.368 16.7018H406.456C406.246 16.7018 406.105 16.8421 406.105 17.0526V54.807C406.105 55.0175 406.246 55.1579 406.456 55.1579H415.368C415.579 55.1579 415.719 55.0175 415.719 54.807V17.1228C415.719 16.9123 415.579 16.7018 415.368 16.7018Z" fill="#FFF500"/>
<path d="M410.877 0C408.07 0 405.754 2.31579 405.754 5.12281C405.754 7.92982 408.07 10.2456 410.877 10.2456C413.684 10.2456 416 7.92982 416 5.12281C416 2.31579 413.684 0 410.877 0Z" fill="#FFF500"/>
<path d="M280.772 55.2281V15.9298L263.158 43.8596L245.544 15.8596V55.2281H235.79L236 0H245.614L263.228 28.0702L280.842 0H290.526V55.2281H280.772Z" fill="#FFF500"/>
<path d="M334.332 18.0047L334.332 18.0047L334.337 18.0064C337.014 19.1048 339.274 20.6123 341.19 22.529C343.108 24.4468 344.617 26.7092 345.717 29.2511C346.811 31.7808 347.36 34.5198 347.36 37.4737V37.614C347.36 40.4969 346.811 43.236 345.717 45.7665C344.617 48.3084 343.108 50.5707 341.19 52.4885C339.269 54.4103 337.007 55.9855 334.337 57.0813L334.337 57.0812L334.327 57.0855C331.66 58.2477 328.782 58.7982 325.614 58.7982C322.516 58.7982 319.635 58.2476 317.036 57.1532L317.032 57.1514C314.355 56.053 312.095 54.5456 310.178 52.6289C308.26 50.7111 306.751 48.4487 305.652 45.9068C304.558 43.3763 304.009 40.6373 304.009 37.7544V37.614C304.009 34.7295 304.558 31.9204 305.652 29.3914C306.751 26.8495 308.26 24.5872 310.178 22.6693C312.097 20.7504 314.429 19.1727 317.036 18.0749L317.036 18.075L317.046 18.0704C319.639 16.9106 322.515 16.3596 325.684 16.3596C328.853 16.3596 331.734 16.9106 334.332 18.0047ZM335.241 47.3602C336.414 46.1147 337.291 44.6508 337.875 42.9747C338.458 41.3701 338.746 39.5582 338.746 37.7544V37.614C338.746 35.74 338.458 33.9233 337.8 32.2423C337.144 30.4943 336.196 29.0356 335.031 27.7977C333.866 26.56 332.48 25.5381 330.874 24.808C329.259 24.0739 327.503 23.7105 325.544 23.7105C323.585 23.7105 321.829 24.0739 320.214 24.808C318.619 25.5331 317.23 26.4813 316.057 27.7275C314.884 28.9739 314.006 30.4389 313.423 32.1164C312.842 33.7868 312.553 35.597 312.553 37.4035V37.5439C312.553 39.4906 312.842 41.238 313.499 42.919C314.155 44.5948 315.103 46.0523 316.268 47.29C317.432 48.5277 318.818 49.5496 320.425 50.2797C322.038 51.0132 323.794 51.3772 325.684 51.3772C327.641 51.3772 329.467 51.0148 331.084 50.2797C332.679 49.5546 334.068 48.6064 335.241 47.3602Z" stroke="white"/>
<path d="M429.272 4.57016H438.167V59.0087H429.272V4.57016Z" stroke="white"/>
<path d="M457.474 40.7632H456.95L456.974 41.2859C457.05 42.9517 457.73 44.6621 458.973 46.2706C460.207 47.8683 461.805 49.2484 463.763 50.2651C465.725 51.3536 467.701 51.8684 469.684 51.8684C473.415 51.8684 476.72 50.307 479.653 47.3158L485.053 52.8403C482.811 55.0724 480.453 56.6808 478.039 57.7902C475.446 58.95 472.64 59.5 469.474 59.5C465.487 59.5 461.857 58.5387 458.642 56.6231L458.638 56.6207C455.348 54.7016 452.812 52.0986 450.888 48.8007C448.97 45.5128 448.009 41.8812 448.009 37.8246V37.6842C448.009 33.6993 448.969 30.0658 450.89 26.7042C452.816 23.3345 455.352 20.6643 458.638 18.7477L458.638 18.7477L458.645 18.7437C461.929 16.7594 465.558 15.7982 469.614 15.7982C473.526 15.7982 477.084 16.7573 480.371 18.7425C483.606 20.7392 486.208 23.2768 488.055 26.5609L488.058 26.5649C489.912 29.792 490.868 33.2154 490.868 36.8421C490.868 38.1547 490.755 39.461 490.477 40.7632H457.474ZM477.737 26.1533L477.737 26.1533L477.729 26.1467C475.661 24.3739 473.014 23.4298 469.684 23.4298C466.304 23.4298 463.506 24.2936 461.425 26.15C459.387 27.8979 457.998 30.0899 457.34 32.6474L457.18 33.2719H457.825H481.404H482.072L481.883 32.6308C481.154 30.1525 479.769 27.9678 477.737 26.1533Z" stroke="white"/>
<path d="M366.517 55.0188L365.746 54.5195V55.4386V58.6579H357.272V4.57016H365.886V19.5088V20.4593L366.669 19.9208C367.754 19.175 368.984 18.5586 370.299 18.0047C372.898 16.9105 375.778 16.3596 378.947 16.3596C382.107 16.3596 384.988 16.9773 387.593 18.0736C390.276 19.2438 392.538 20.7533 394.454 22.6693C396.371 24.5872 397.881 26.8495 398.98 29.3914C400.074 31.9212 400.623 34.6601 400.623 37.614V37.7544C400.623 40.6372 400.074 43.3763 398.98 45.9068L398.978 45.9112C397.881 48.5163 396.374 50.7082 394.454 52.6289C392.54 54.5425 390.211 56.0517 387.598 57.1523C384.924 58.2488 382.112 58.7982 379.018 58.7982C375.86 58.7982 372.98 58.1816 370.303 57.0844C368.927 56.4648 367.688 55.7766 366.517 55.0188ZM388.505 27.7275L388.499 27.722L388.494 27.7166C387.335 26.5572 385.953 25.5377 384.347 24.808C382.732 24.0739 380.977 23.7105 379.018 23.7105C377.058 23.7105 375.303 24.0739 373.688 24.808C372.082 25.538 370.696 26.5596 369.531 27.797C368.289 29.1125 367.414 30.5728 366.762 32.2388C366.104 33.9209 365.816 35.7388 365.816 37.614V37.7544C365.816 39.5632 366.105 41.303 366.686 42.9713C367.269 44.6488 368.147 46.1138 369.32 47.3602L369.325 47.3657L369.331 47.3711C370.49 48.5305 371.872 49.55 373.477 50.2797C375.093 51.0143 376.849 51.3772 378.877 51.3772C380.768 51.3772 382.523 51.0132 384.137 50.2797C385.741 49.5507 387.125 48.5308 388.289 47.2956C389.537 46.0456 390.412 44.5812 391.062 42.919C391.72 41.237 392.009 39.4191 392.009 37.5438V37.4035C392.009 35.597 391.72 33.7868 391.139 32.1164C390.555 30.4389 389.678 28.9739 388.505 27.7275Z" stroke="white"/>
<path d="M410.605 58.6579V21.2018H419.219V58.6579H410.605Z" stroke="white"/>
<path d="M410.254 9.12281C410.254 6.59193 412.346 4.5 414.877 4.5C417.408 4.5 419.5 6.59193 419.5 9.12281C419.5 11.6537 417.408 13.7456 414.877 13.7456C412.346 13.7456 410.254 11.6537 410.254 9.12281Z" stroke="white"/>
<path d="M285.119 4.5H294.026V58.7281H285.272V19.9298V18.1997L284.349 19.6631L267.158 46.9215L249.967 19.5934L249.044 18.1258V19.8596V58.7281H240.291L240.498 4.5H249.338L266.805 32.3359L267.228 33.0109L267.652 32.3359L285.119 4.5Z" stroke="white"/>
</svg>
