<svg width="285" height="80" viewBox="0 0 285 80" fill="none" xmlns="http://www.w3.org/2000/svg">
<path d="M71.872 62.49H75.472V65.25H71.872V74.49H69.112V65.25H67V62.49H69.112V61.866C69.112 61.194 69.24 60.602 69.496 60.09C69.72 59.562 70.056 59.09 70.504 58.674C70.936 58.258 71.44 57.946 72.016 57.738C72.496 57.562 73.04 57.474 73.648 57.474C74.128 57.474 74.608 57.53 75.088 57.642C75.584 57.738 76.016 57.866 76.384 58.026L75.328 60.522C75.248 60.458 75.056 60.378 74.752 60.282C74.496 60.186 74.208 60.138 73.888 60.138H73.84C73.52 60.138 73.24 60.186 73 60.282C72.744 60.394 72.536 60.522 72.376 60.666C72.232 60.794 72.104 60.978 71.992 61.218C71.912 61.378 71.872 61.594 71.872 61.866V62.49ZM83.9001 74.706C84.7961 74.706 85.6361 74.538 86.4201 74.202C87.1401 73.914 87.8201 73.474 88.4601 72.882C89.0201 72.258 89.4601 71.602 89.7801 70.914C90.1001 70.13 90.2601 69.33 90.2601 68.514V68.466C90.2601 67.65 90.1001 66.858 89.7801 66.09C89.4921 65.37 89.0521 64.714 88.4601 64.122C87.9001 63.562 87.2281 63.114 86.4441 62.778C85.6601 62.474 84.8281 62.322 83.9481 62.322C83.0201 62.322 82.1641 62.49 81.3801 62.826C80.6441 63.114 79.9801 63.554 79.3881 64.146C78.8441 64.706 78.4041 65.362 78.0681 66.114C77.7481 66.882 77.5881 67.682 77.5881 68.514V68.562C77.5881 69.378 77.7481 70.17 78.0681 70.938C78.4041 71.722 78.8441 72.378 79.3881 72.906C79.9161 73.434 80.5801 73.874 81.3801 74.226C82.1641 74.546 83.0041 74.706 83.9001 74.706ZM83.9481 72.33C83.3881 72.33 82.9001 72.226 82.4841 72.018C82.1001 71.858 81.7161 71.586 81.3321 71.202C81.0121 70.834 80.7641 70.426 80.5881 69.978C80.3961 69.546 80.3001 69.058 80.3001 68.514V68.466C80.3001 67.97 80.3961 67.482 80.5881 67.002C80.7161 66.538 80.9481 66.138 81.2841 65.802C81.5721 65.482 81.9481 65.21 82.4121 64.986C82.8441 64.794 83.3401 64.698 83.9001 64.698C84.4441 64.698 84.9321 64.794 85.3641 64.986C85.8121 65.21 86.1961 65.482 86.5161 65.802C86.8521 66.17 87.1001 66.578 87.2601 67.026C87.4521 67.57 87.5481 68.066 87.5481 68.514V68.562C87.5481 68.898 87.4681 69.386 87.3081 70.026C87.1321 70.49 86.8841 70.882 86.5641 71.202C86.2281 71.554 85.8521 71.826 85.4361 72.018C85.0041 72.226 84.5081 72.33 83.9481 72.33ZM98.5615 65.85C98.2895 65.642 98.0015 65.506 97.6975 65.442C97.3935 65.362 97.0255 65.322 96.5935 65.322C95.9375 65.322 95.3615 65.586 94.8655 66.114C94.3855 66.626 94.1455 67.218 94.1455 67.89V68.898L94.2175 74.49H91.4575V62.49H94.1455V63.906C94.5935 63.458 95.1135 63.114 95.7055 62.874C96.2975 62.618 96.8575 62.49 97.3855 62.49C97.9135 62.49 98.4495 62.594 98.9935 62.802L98.5615 65.85ZM113.605 57.666C115.109 57.666 116.501 58.042 117.781 58.794C119.077 59.546 120.101 60.57 120.853 61.866C121.605 63.146 121.981 64.538 121.981 66.042C121.981 67.594 121.581 69.01 120.781 70.29C119.997 71.57 118.941 72.586 117.613 73.338C116.285 74.074 114.853 74.442 113.317 74.442L107.149 74.466V57.666H113.605ZM113.605 71.562C114.565 71.562 115.437 71.322 116.221 70.842C117.021 70.362 117.645 69.706 118.093 68.874C118.557 68.026 118.789 67.082 118.789 66.042C118.789 65.018 118.557 64.09 118.093 63.258C117.645 62.426 117.021 61.77 116.221 61.29C115.437 60.81 114.565 60.57 113.605 60.57H113.533V60.546H110.101V71.562H113.605ZM134.887 66.09C135.191 66.794 135.343 67.578 135.343 68.442V68.49C135.343 68.874 135.311 69.202 135.247 69.474H125.887C125.903 69.506 125.951 69.666 126.031 69.954C126.255 70.466 126.495 70.866 126.751 71.154C127.071 71.474 127.439 71.746 127.855 71.97C128.319 72.162 128.791 72.258 129.271 72.258C129.799 72.258 130.279 72.162 130.711 71.97C130.919 71.89 131.127 71.77 131.335 71.61C131.543 71.45 131.703 71.306 131.815 71.178L133.711 72.666C133.135 73.274 132.455 73.77 131.671 74.154C130.903 74.474 130.087 74.634 129.223 74.634C128.391 74.634 127.583 74.474 126.799 74.154C126.063 73.85 125.423 73.41 124.879 72.834C124.351 72.322 123.935 71.682 123.631 70.914C123.327 70.226 123.175 69.434 123.175 68.538V68.49C123.175 67.578 123.327 66.786 123.631 66.114C123.951 65.314 124.375 64.666 124.903 64.17C125.431 63.626 126.071 63.17 126.823 62.802C127.591 62.482 128.407 62.322 129.271 62.322C130.119 62.322 130.927 62.482 131.695 62.802C132.383 63.106 133.023 63.546 133.615 64.122C134.127 64.634 134.551 65.29 134.887 66.09ZM132.487 67.146C132.295 66.474 131.927 65.906 131.383 65.442C130.855 64.962 130.151 64.722 129.271 64.722C128.359 64.722 127.623 64.962 127.063 65.442C126.519 65.906 126.159 66.474 125.983 67.146H132.487ZM131.791 71.178C131.839 71.13 131.863 71.114 131.863 71.13C131.863 71.13 131.847 71.146 131.815 71.178H131.791ZM145.984 62.49H148.84L144.232 74.49H141.16L136.552 62.49H139.408L142.672 71.058L145.984 62.49ZM161.759 66.09C162.063 66.794 162.215 67.578 162.215 68.442V68.49C162.215 68.874 162.183 69.202 162.119 69.474H152.759C152.775 69.506 152.823 69.666 152.903 69.954C153.127 70.466 153.367 70.866 153.623 71.154C153.943 71.474 154.311 71.746 154.727 71.97C155.191 72.162 155.663 72.258 156.143 72.258C156.671 72.258 157.151 72.162 157.583 71.97C157.791 71.89 157.999 71.77 158.207 71.61C158.415 71.45 158.575 71.306 158.687 71.178L160.583 72.666C160.007 73.274 159.327 73.77 158.543 74.154C157.775 74.474 156.959 74.634 156.095 74.634C155.263 74.634 154.455 74.474 153.671 74.154C152.935 73.85 152.295 73.41 151.751 72.834C151.223 72.322 150.807 71.682 150.503 70.914C150.199 70.226 150.047 69.434 150.047 68.538V68.49C150.047 67.578 150.199 66.786 150.503 66.114C150.823 65.314 151.247 64.666 151.775 64.17C152.303 63.626 152.943 63.17 153.695 62.802C154.463 62.482 155.279 62.322 156.143 62.322C156.991 62.322 157.799 62.482 158.567 62.802C159.255 63.106 159.895 63.546 160.487 64.122C160.999 64.634 161.423 65.29 161.759 66.09ZM159.359 67.146C159.167 66.474 158.799 65.906 158.255 65.442C157.727 64.962 157.023 64.722 156.143 64.722C155.231 64.722 154.495 64.962 153.935 65.442C153.391 65.906 153.031 66.474 152.855 67.146H159.359ZM158.663 71.178C158.711 71.13 158.735 71.114 158.735 71.13C158.735 71.13 158.719 71.146 158.687 71.178H158.663ZM166.16 59.226V74.49H163.424V59.226H166.16ZM173.668 74.706C174.564 74.706 175.404 74.538 176.188 74.202C176.908 73.914 177.588 73.474 178.228 72.882C178.788 72.258 179.228 71.602 179.548 70.914C179.868 70.13 180.028 69.33 180.028 68.514V68.466C180.028 67.65 179.868 66.858 179.548 66.09C179.26 65.37 178.82 64.714 178.228 64.122C177.668 63.562 176.996 63.114 176.212 62.778C175.428 62.474 174.596 62.322 173.716 62.322C172.788 62.322 171.932 62.49 171.148 62.826C170.412 63.114 169.748 63.554 169.156 64.146C168.612 64.706 168.172 65.362 167.836 66.114C167.516 66.882 167.356 67.682 167.356 68.514V68.562C167.356 69.378 167.516 70.17 167.836 70.938C168.172 71.722 168.612 72.378 169.156 72.906C169.684 73.434 170.348 73.874 171.148 74.226C171.932 74.546 172.772 74.706 173.668 74.706ZM173.716 72.33C173.156 72.33 172.668 72.226 172.252 72.018C171.868 71.858 171.484 71.586 171.1 71.202C170.78 70.834 170.532 70.426 170.356 69.978C170.164 69.546 170.068 69.058 170.068 68.514V68.466C170.068 67.97 170.164 67.482 170.356 67.002C170.484 66.538 170.716 66.138 171.052 65.802C171.34 65.482 171.716 65.21 172.18 64.986C172.612 64.794 173.108 64.698 173.668 64.698C174.212 64.698 174.7 64.794 175.132 64.986C175.58 65.21 175.964 65.482 176.284 65.802C176.62 66.17 176.868 66.578 177.028 67.026C177.22 67.57 177.316 68.066 177.316 68.514V68.562C177.316 68.898 177.236 69.386 177.076 70.026C176.9 70.49 176.652 70.882 176.332 71.202C175.996 71.554 175.62 71.826 175.204 72.018C174.772 72.226 174.276 72.33 173.716 72.33ZM183.913 62.49V63.33C183.993 63.298 184.089 63.25 184.201 63.186C184.329 63.106 184.489 63.026 184.681 62.946C185.401 62.642 186.217 62.49 187.129 62.49C188.057 62.49 188.873 62.65 189.577 62.97C190.297 63.274 190.937 63.706 191.497 64.266C192.105 64.874 192.537 65.514 192.793 66.186C193.097 66.89 193.249 67.666 193.249 68.514V68.538C193.249 69.386 193.097 70.162 192.793 70.866C192.505 71.602 192.089 72.226 191.545 72.738C191.017 73.266 190.369 73.69 189.601 74.01C188.865 74.33 188.057 74.49 187.177 74.49C186.233 74.49 185.409 74.33 184.705 74.01C184.369 73.866 184.105 73.722 183.913 73.578V77.754H181.249L181.225 62.49H183.913ZM183.649 68.538C183.649 68.97 183.729 69.442 183.889 69.954C184.033 70.37 184.265 70.754 184.585 71.106C184.809 71.378 185.169 71.642 185.665 71.898C186.193 72.09 186.681 72.186 187.129 72.186C187.577 72.186 188.049 72.09 188.545 71.898C189.041 71.642 189.401 71.378 189.625 71.106C189.961 70.754 190.217 70.362 190.393 69.93C190.553 69.418 190.633 68.946 190.633 68.514V68.442C190.633 67.93 190.553 67.458 190.393 67.026C190.233 66.61 190.001 66.226 189.697 65.874C189.377 65.538 189.009 65.274 188.593 65.082C188.129 64.89 187.657 64.794 187.177 64.794C186.729 64.794 186.257 64.89 185.761 65.082C185.329 65.258 184.953 65.522 184.633 65.874C184.297 66.21 184.057 66.602 183.913 67.05C183.737 67.53 183.649 68.026 183.649 68.538ZM206.15 66.09C206.454 66.794 206.606 67.578 206.606 68.442V68.49C206.606 68.874 206.574 69.202 206.51 69.474H197.15C197.166 69.506 197.214 69.666 197.294 69.954C197.518 70.466 197.758 70.866 198.014 71.154C198.334 71.474 198.702 71.746 199.118 71.97C199.582 72.162 200.054 72.258 200.534 72.258C201.062 72.258 201.542 72.162 201.974 71.97C202.182 71.89 202.39 71.77 202.598 71.61C202.806 71.45 202.966 71.306 203.078 71.178L204.974 72.666C204.398 73.274 203.718 73.77 202.934 74.154C202.166 74.474 201.35 74.634 200.486 74.634C199.654 74.634 198.846 74.474 198.062 74.154C197.326 73.85 196.686 73.41 196.142 72.834C195.614 72.322 195.198 71.682 194.894 70.914C194.59 70.226 194.438 69.434 194.438 68.538V68.49C194.438 67.578 194.59 66.786 194.894 66.114C195.214 65.314 195.638 64.666 196.166 64.17C196.694 63.626 197.334 63.17 198.086 62.802C198.854 62.482 199.67 62.322 200.534 62.322C201.382 62.322 202.19 62.482 202.958 62.802C203.646 63.106 204.286 63.546 204.878 64.122C205.39 64.634 205.814 65.29 206.15 66.09ZM203.75 67.146C203.558 66.474 203.19 65.906 202.646 65.442C202.118 64.962 201.414 64.722 200.534 64.722C199.622 64.722 198.886 64.962 198.326 65.442C197.782 65.906 197.422 66.474 197.246 67.146H203.75ZM203.054 71.178C203.102 71.13 203.126 71.114 203.126 71.13C203.126 71.13 203.11 71.146 203.078 71.178H203.054ZM214.919 65.85C214.647 65.642 214.359 65.506 214.055 65.442C213.751 65.362 213.383 65.322 212.951 65.322C212.295 65.322 211.719 65.586 211.223 66.114C210.743 66.626 210.503 67.218 210.503 67.89V68.898L210.575 74.49H207.815V62.49H210.503V63.906C210.951 63.458 211.471 63.114 212.063 62.874C212.655 62.618 213.215 62.49 213.743 62.49C214.271 62.49 214.807 62.594 215.351 62.802L214.919 65.85Z" fill="#333333"/>
<path d="M199.565 22.495C200.775 24.035 201.38 26.0333 201.38 28.49C201.38 32.01 200.133 34.8333 197.64 36.96C195.11 39.1967 191.572 40.315 187.025 40.315C185.265 40.315 183.523 40.095 181.8 39.655C179.93 39.105 178.555 38.5917 177.675 38.115C176.575 37.5283 175.603 36.8867 174.76 36.19C173.88 35.4933 173.312 34.98 173.055 34.65L173 34.595L176.96 29.315C178.39 30.5983 179.948 31.6983 181.635 32.615C183.358 33.495 184.953 33.935 186.42 33.935C188.143 33.935 189.61 33.6783 190.82 33.165C191.773 32.7617 192.543 32.1383 193.13 31.295C193.717 30.4517 194.01 29.535 194.01 28.545V28.49C194.01 27.7567 193.698 26.95 193.075 26.07C192.452 25.1533 191.48 24.4383 190.16 23.925L182.02 20.735C180.92 20.295 179.783 19.7267 178.61 19.03C177.473 18.2967 176.593 17.5267 175.97 16.72C174.687 15.1067 174.045 13.1633 174.045 10.89C174.045 7.99333 175.255 5.42667 177.675 3.19C180.132 1.06333 183.34 0 187.3 0C188.95 0 190.49 0.183334 191.92 0.550003C193.35 0.880001 194.523 1.30167 195.44 1.815C196.357 2.29167 197.2 2.78667 197.97 3.3C198.557 3.74 199.015 4.16167 199.345 4.565L195.55 9.515C193.057 7.90167 191.223 6.94833 190.05 6.655C189.06 6.36167 187.905 6.215 186.585 6.215C185.448 6.215 184.367 6.52667 183.34 7.15C182.093 7.88334 181.47 9.02 181.47 10.56C181.47 12.54 182.662 13.9883 185.045 14.905L194.01 18.26C194.89 18.6267 195.88 19.2317 196.98 20.075C198.08 20.8817 198.942 21.6883 199.565 22.495Z" fill="#333333"/>
<path d="M222.934 0.935001C226.381 0.935001 229.571 1.79667 232.504 3.52C235.474 5.24333 237.821 7.59 239.544 10.56C241.268 13.4933 242.129 16.6833 242.129 20.13C242.129 23.6867 241.213 26.9317 239.379 29.865C237.583 32.7983 235.163 35.1267 232.119 36.85C229.076 38.5367 225.794 39.38 222.274 39.38L208.139 39.435V0.935001H222.934ZM222.934 32.78C225.134 32.78 227.133 32.23 228.929 31.13C230.763 30.03 232.193 28.5267 233.219 26.62C234.283 24.6767 234.814 22.5133 234.814 20.13C234.814 17.7833 234.283 15.6567 233.219 13.75C232.193 11.8433 230.763 10.34 228.929 9.24C227.133 8.14 225.134 7.59 222.934 7.59H222.769V7.535H214.904V32.78H222.934Z" fill="#333333"/>
<path d="M275.32 39.49L265.53 25.575L255.685 39.49H248.865V0.99H255.685V27.555L274.385 0.99H282.745L270.15 18.865L284.615 39.49H275.32Z" fill="#333333"/>
<path d="M103.188 13.6301C101.771 12.2131 100.064 11.0858 98.0997 10.2485C96.1352 9.44334 94.0096 9.02466 91.6907 9.02466C89.3719 9.02466 87.2141 9.44334 85.2817 10.2807C83.3171 11.1181 81.6424 12.2453 80.1931 13.6623C78.7761 15.0794 77.6488 16.7541 76.8115 18.6543C76.0063 20.5544 75.5876 22.5834 75.5876 24.7735V24.9023C75.5876 27.0279 75.9741 29.0569 76.7793 30.957C77.5844 32.8572 78.6794 34.4997 80.1287 35.9168C81.5458 37.3338 83.2527 38.4288 85.2173 39.2662C87.1819 40.0714 89.3075 40.49 91.5941 40.49C93.9129 40.49 96.0707 40.0714 98.0353 39.234C99.9999 38.3966 101.707 37.2694 103.156 35.8524C104.605 34.4353 105.7 32.7606 106.538 30.8604C107.343 28.9602 107.762 26.9313 107.762 24.8057V24.6768C107.762 22.519 107.375 20.49 106.57 18.5899C105.733 16.7219 104.638 15.0794 103.188 13.6301ZM100.837 24.9023C100.837 26.1905 100.612 27.4144 100.225 28.5738C99.8067 29.7332 99.1947 30.7316 98.3896 31.6011C97.5844 32.4707 96.6182 33.147 95.5232 33.6623C94.396 34.1776 93.14 34.4353 91.7229 34.4353C90.4025 34.4353 89.1786 34.1776 88.0514 33.6623C86.9242 33.147 85.958 32.4707 85.1529 31.5689C84.3477 30.6994 83.7036 29.6688 83.2527 28.5094C82.8018 27.3499 82.5764 26.0939 82.5764 24.7735V24.6446C82.5764 23.3564 82.7696 22.1003 83.1883 20.9409C83.607 19.7493 84.2189 18.7509 85.024 17.8813C85.8292 17.0118 86.7954 16.3354 87.9226 15.8201C89.0498 15.3049 90.3058 15.0472 91.6585 15.0472C93.0434 15.0472 94.2672 15.3049 95.3944 15.8201C96.5216 16.3354 97.4878 17.044 98.293 17.9135C99.0981 18.7831 99.7422 19.8137 100.193 21.0053C100.644 22.197 100.869 23.453 100.869 24.7735V24.9023H100.837Z" fill="#333333"/>
<path d="M160.064 0.522217H153.688C153.527 0.522217 153.43 0.651041 153.43 0.779866V11.6977C152.593 11.1502 151.691 10.6671 150.725 10.2485C148.76 9.44331 146.635 9.02463 144.316 9.02463C141.997 9.02463 139.839 9.44331 137.907 10.2807C135.942 11.118 134.267 12.2452 132.818 13.6623C131.401 15.0794 130.274 16.7541 129.436 18.6543C128.631 20.5544 128.213 22.5834 128.213 24.7734V24.9023C128.213 27.0279 128.599 29.0568 129.404 30.957C130.209 32.8572 131.304 34.4997 132.754 35.9167C134.171 37.3338 135.878 38.4288 137.842 39.2662C139.807 40.0713 141.932 40.49 144.219 40.49C146.538 40.49 148.696 40.0713 150.66 39.234C151.659 38.8153 152.593 38.3 153.462 37.7203V40.1357C153.462 40.2968 153.591 40.3934 153.72 40.3934H160.064C160.226 40.3934 160.322 40.2646 160.322 40.1357V0.779866C160.322 0.618835 160.226 0.522217 160.064 0.522217ZM152.786 28.606C152.367 29.7654 151.755 30.7638 150.95 31.6333C150.145 32.5029 149.179 33.1792 148.084 33.6945C146.957 34.2098 145.701 34.4675 144.283 34.4675C142.963 34.4675 141.739 34.2098 140.612 33.6945C139.485 33.1792 138.519 32.5029 137.713 31.6011C136.908 30.7316 136.264 29.701 135.813 28.5415C135.362 27.3821 135.137 26.1261 135.137 24.8056V24.6768C135.137 23.3886 135.33 22.1325 135.749 20.9731C136.168 19.7815 136.779 18.7831 137.585 17.9135C138.39 17.044 139.356 16.3676 140.483 15.8523C141.61 15.337 142.866 15.0794 144.219 15.0794C145.604 15.0794 146.828 15.337 147.955 15.8523C149.082 16.3676 150.048 17.0762 150.854 17.9457C151.659 18.8153 152.303 19.8459 152.754 21.0375C153.205 22.2291 153.43 23.4852 153.43 24.8056V24.9345C153.43 26.1905 153.205 27.4465 152.786 28.606Z" fill="#333333"/>
<path d="M66.3447 5.09547C64.9276 3.6784 63.2207 2.55118 61.2561 1.71382C59.4526 0.973082 57.488 0.554402 55.3946 0.48999H39.1949C39.0339 0.48999 38.9373 0.618815 38.9373 0.747639V6.28709C38.9373 6.44812 39.0661 6.54474 39.1949 6.54474H54.7183H54.8149C56.1353 6.54474 57.3592 6.80239 58.4542 7.31769C59.5814 7.83299 60.5476 8.54152 61.3527 9.41109C62.1579 10.2807 62.802 11.3112 63.2529 12.5029C63.7038 13.6945 63.9292 14.9505 63.9292 16.271V16.3998C63.9292 17.6881 63.7038 18.9119 63.3173 20.0713C62.8986 21.2307 62.2867 22.2291 61.4815 23.0987C60.6764 23.9683 59.7102 24.6446 58.6152 25.1599C57.488 25.6752 56.2319 25.9328 54.8149 25.9328H54.7505H45.9582V12.8571C45.9582 12.6961 45.8294 12.5995 45.7005 12.5995H39.2271C39.0661 12.5995 38.9695 12.7283 38.9695 12.8571V40.1679C38.9695 40.329 39.0983 40.4256 39.2271 40.4256H45.7005C45.8616 40.4256 45.9582 40.2968 45.9582 40.1679V31.9554H54.525L60.4831 40.3612C60.5476 40.4256 60.612 40.4578 60.7086 40.4578H68.3736C68.5991 40.4578 68.7279 40.2001 68.5991 40.0391L61.6748 30.4417C63.4139 29.6365 64.9598 28.6059 66.248 27.2855C67.6651 25.8684 68.7923 24.1937 69.6297 22.2935C70.4348 20.3934 70.8535 18.3644 70.8535 16.2388V16.11C70.8535 13.9521 70.467 11.9232 69.6619 10.023C68.8889 8.15505 67.7617 6.51253 66.3447 5.09547Z" fill="#333333"/>
<path d="M121.031 12.5995H114.557C114.396 12.5995 114.3 12.7283 114.3 12.8571V40.1679C114.3 40.329 114.428 40.4256 114.557 40.4256H121.031C121.192 40.4256 121.288 40.2968 121.288 40.1679V12.8571C121.288 12.7283 121.159 12.5995 121.031 12.5995Z" fill="#333333"/>
<path d="M117.778 0.522217C115.716 0.522217 114.074 2.19694 114.074 4.22592C114.074 6.28711 115.749 7.92962 117.778 7.92962C119.839 7.92962 121.481 6.25491 121.481 4.22592C121.481 2.16473 119.839 0.522217 117.778 0.522217Z" fill="#333333"/>
<path d="M0.515298 19.7815C0.386473 19.4916 0 19.5882 0 19.8781V40.2323C0 40.3934 0.128824 40.49 0.257649 40.49H8.66345C8.85668 40.49 8.98551 40.2968 8.92109 40.1357L0.515298 19.7815Z" fill="#333333"/>
<path d="M31.4332 2.55123L15.9743 40.1358C15.9099 40.2968 16.0387 40.49 16.2319 40.49H31.6909C31.8519 40.49 31.9485 40.3612 31.9485 40.2324V2.64785C31.9485 2.358 31.562 2.26138 31.4332 2.55123Z" fill="#333333"/>
<path d="M0.901846 0.48999C0.708609 0.48999 0.579785 0.683227 0.644197 0.844258L12.2706 30.5061C12.3672 30.7315 12.6893 30.7315 12.7537 30.5061L24.3479 0.812051C24.4445 0.683227 24.3157 0.48999 24.1225 0.48999H0.901846Z" fill="#333333"/>
</svg>
