<svg xmlns="http://www.w3.org/2000/svg" viewBox="0 0 586.39 75.89"><defs><style>.cls-1{fill:#fff;}</style></defs><title>buzznet-logo-bolt-lockup-white</title><g id="Layer_2" data-name="Layer 2"><g id="_Layer_" data-name="&lt;Layer&gt;"><path class="cls-1" d="M13.47,31.2a.8.8,0,0,0,.57.86c.56.06,6.88-1.79,7.68-1.71a.65.65,0,0,1,.57.78c-.05.56-17.67,30.31-20.16,35.34-.29.53-.76,1.3-1.49,1.23s-.75-.63-.5-1.5C.41,64.93,9.52,41.67,9.57,41c0-.4-.18-.58-.67-.63-.64,0-6.6,2.39-7.25,2.33-.4,0-.61-.38-.56-.86S10.52,13.43,11.94,9.21a.78.78,0,0,1,.74-.53H23.76a.78.78,0,0,1,.7,1.15C22.08,14.34,13.53,30.58,13.47,31.2Z"/><path class="cls-1" d="M50.31,71.54V2.38A2.38,2.38,0,0,1,52.69,0H64.14A106.4,106.4,0,0,1,79.87.83a28.76,28.76,0,0,1,8.61,2.75,17.48,17.48,0,0,1,9,15.66q0,6.56-3.89,10.53a17.76,17.76,0,0,1-7.51,4.31.93.93,0,0,0,0,1.8,20.65,20.65,0,0,1,9.39,5q4.56,4.49,4.57,12a19.53,19.53,0,0,1-2.63,10,18.18,18.18,0,0,1-7.22,7A31.36,31.36,0,0,1,80.61,73q-5.51,1-18.23,1H52.69A2.38,2.38,0,0,1,50.31,71.54ZM66.11,28.6a.94.94,0,0,0,.94.94h2.6q7.17,0,10.15-2c2-1.35,3-3.6,3-6.77s-1-5.3-2.86-6.61-5.22-2-10-2h-2.9a.94.94,0,0,0-.94.94Zm0,32.06a.94.94,0,0,0,.94.94h5.27q6,0,9-2.6c2.06-1.73,3.08-4.27,3.08-7.6a8.71,8.71,0,0,0-3-7.17q-3.06-2.48-8.86-2.47H67.05a.94.94,0,0,0-.94.94Z"/><path class="cls-1" d="M185.82,0a2.38,2.38,0,0,1,2.38,2.38V46q0,15-7.93,22.47t-23.88,7.42q-16.21,0-24.14-7.42T124.32,46V2.38A2.38,2.38,0,0,1,126.7,0h11A2.38,2.38,0,0,1,140,2.38V43.52q0,9.15,4,13.76t12.06,4.62q8.09,0,12.22-4.64t4.14-13.74V2.38A2.38,2.38,0,0,1,174.87,0Z"/><path class="cls-1" d="M266.19,73.92H210.8a2.38,2.38,0,0,1-2-3.64l35.1-56.22a.94.94,0,0,0-.79-1.44H212.83a2.38,2.38,0,0,1-2.38-2.38V2.38A2.38,2.38,0,0,1,212.83,0h53a2.38,2.38,0,0,1,2,3.64l-35.1,56.12a.94.94,0,0,0,.8,1.44h32.63a2.37,2.37,0,0,1,2.38,2.38v8A2.37,2.37,0,0,1,266.19,73.92Z"/><path class="cls-1" d="M346.27,73.92H290.88a2.38,2.38,0,0,1-2-3.64L324,14.06a.94.94,0,0,0-.8-1.44H292.91a2.38,2.38,0,0,1-2.38-2.38V2.38A2.38,2.38,0,0,1,292.91,0h53a2.38,2.38,0,0,1,2,3.64l-35.1,56.12a.94.94,0,0,0,.8,1.44h32.63a2.38,2.38,0,0,1,2.38,2.38v8A2.38,2.38,0,0,1,346.27,73.92Z"/><path class="cls-1" d="M371.72,71.54V2.38A2.38,2.38,0,0,1,374.1,0H387a2.39,2.39,0,0,1,1.9.94l32,42.08A33.62,33.62,0,0,1,424,48.14c.3.6.61,1.23.92,1.88a.94.94,0,0,0,1.79-.48v-.11c-.17-2.15-.25-4.85-.25-8.08v-39A2.37,2.37,0,0,1,428.78,0h10.34a2.37,2.37,0,0,1,2.38,2.38V71.54a2.37,2.37,0,0,1-2.38,2.38H427.17a2.37,2.37,0,0,1-1.88-.93l-32.92-42.9A32.25,32.25,0,0,1,389.29,25c-.3-.61-.62-1.26-.94-1.94a.94.94,0,0,0-1.78.47h0c.17,2.18.25,4.91.25,8.21V71.54a2.37,2.37,0,0,1-2.38,2.38H374.1A2.38,2.38,0,0,1,371.72,71.54Z"/><path class="cls-1" d="M470.38,71.54V2.38A2.38,2.38,0,0,1,472.76,0h38.77a2.38,2.38,0,0,1,2.38,2.38V11a2.39,2.39,0,0,1-2.38,2.38h-24.4a.94.94,0,0,0-.94.94V27.59a.94.94,0,0,0,.94.94h24.4a2.38,2.38,0,0,1,2.38,2.38v8.67A2.39,2.39,0,0,1,511.53,42h-24.4a.94.94,0,0,0-.94.94V59.55a.94.94,0,0,0,.94.94h24.4a2.38,2.38,0,0,1,2.38,2.38v8.67a2.38,2.38,0,0,1-2.38,2.38H472.76A2.38,2.38,0,0,1,470.38,71.54Z"/><path class="cls-1" d="M568.31,14.37V71.54a2.38,2.38,0,0,1-2.38,2.38h-11.1a2.38,2.38,0,0,1-2.38-2.38V14.37a.94.94,0,0,0-.93-.94H536.76a2.37,2.37,0,0,1-2.38-2.38V2.38A2.37,2.37,0,0,1,536.76,0H584a2.38,2.38,0,0,1,2.38,2.38v8.67A2.38,2.38,0,0,1,584,13.43H569.25A.94.94,0,0,0,568.31,14.37Z"/></g></g></svg>