<?xml version="1.0" encoding="UTF-8"?>
<svg width="24px" height="24px" viewBox="0 0 24 24" version="1.1" xmlns="http://www.w3.org/2000/svg" xmlns:xlink="http://www.w3.org/1999/xlink">
    <!-- Generator: Sketch 53 (72520) - https://sketchapp.com -->
    <title>angle-arrow-icon</title>
    <desc>Created with Sketch.</desc>
    <g id="Page-1" stroke="none" stroke-width="1" fill="none" fill-rule="evenodd">
        <g id="Artboard-3" transform="translate(-277.000000, -60.000000)" fill-rule="nonzero">
            <g id="angle-arrow-icon" transform="translate(277.000000, 60.000000)">
                <g id="Group_811" fill="#E9387F">
                    <g id="Group">
                        <path d="M12,0 C18.627417,4.05812251e-16 24,5.372583 24,12 C24,18.627417 18.627417,24 12,24 C5.372583,24 8.11624501e-16,18.627417 0,12 C-8.11624501e-16,5.372583 5.372583,1.21743675e-15 12,0 Z" id="Path_2901-2"></path>
                    </g>
                </g>
                <g id="Group_812" transform="translate(4.805000, 5.805000)" fill="#FFFFFF">
                    <path d="M7.00946457,10.8522844 C6.44753566,10.290326 6.44753566,9.37924272 7.00946457,8.81728437 L8.35446457,7.47428437 L2.33346457,7.47428437 C1.81049515,7.4880742 1.32124042,7.2169536 1.05569373,6.76620741 C0.790147038,6.31546122 0.790147038,5.75610751 1.05569373,5.30536132 C1.32124042,4.85461513 1.81049515,4.58349453 2.33346457,4.59728437 L8.31446457,4.59728437 L7.01446457,3.29728437 C6.45764301,2.7355951 6.45850121,1.82980512 7.01638613,1.269172 C7.57427105,0.708538877 8.48004588,0.703229655 9.04446457,1.25728437 L12.7944646,5.00328437 C13.0731658,5.28135294 13.2253823,5.66171336 13.2154646,6.05528437 C13.2252243,6.44853241 13.073011,6.82852336 12.7944646,7.10628437 L9.04446457,10.8522844 C8.48250621,11.4142133 7.57142293,11.4142133 7.00946457,10.8522844 Z" id="Union_25" transform="translate(7.036227, 6.059463) rotate(-360.000000) translate(-7.036227, -6.059463) "></path>
                </g>
            </g>
        </g>
    </g>
</svg>