<?xml version="1.0" encoding="UTF-8"?>
<svg width="11px" height="10px" viewBox="0 0 11 10" version="1.1" xmlns="http://www.w3.org/2000/svg" xmlns:xlink="http://www.w3.org/1999/xlink">
    <!-- Generator: Sketch 53 (72520) - https://sketchapp.com -->
    <title>Union_42</title>
    <desc>Created with Sketch.</desc>
    <g id="Page-1" stroke="none" stroke-width="1" fill="none" fill-rule="evenodd">
        <g id="Artboard-3" transform="translate(-364.000000, -158.000000)" fill="#000000" fill-rule="nonzero">
            <path d="M368.473722,167.476798 C368.21639,167.219982 368.071779,166.871355 368.071779,166.507798 C368.071779,166.14424 368.21639,165.795614 368.473722,165.538798 L369.715722,164.296798 L365.933722,164.296798 C365.176815,164.296798 364.563222,163.683204 364.563222,162.926298 C364.563222,162.169392 365.176815,161.555798 365.933722,161.555798 L369.753722,161.555798 L368.473722,160.275798 C367.938558,159.74091 367.938334,158.873462 368.473222,158.338298 C369.008109,157.803134 369.875558,157.80291 370.410722,158.337798 L373.977722,161.905798 C374.242584,162.170149 374.387207,162.531707 374.377722,162.905798 C374.38891,163.282254 374.244175,163.646626 373.977722,163.912798 L370.410722,167.476798 C370.153775,167.733884 369.805197,167.878325 369.441722,167.878325 C369.078246,167.878325 368.729668,167.733884 368.472722,167.476798 L368.473722,167.476798 Z" id="Union_42" transform="translate(369.470773, 162.907552) rotate(90.000000) translate(-369.470773, -162.907552) "></path>
        </g>
    </g>
</svg>