<?xml version="1.0" encoding="UTF-8"?>
<svg width="13px" height="12px" viewBox="0 0 13 12" version="1.1" xmlns="http://www.w3.org/2000/svg" xmlns:xlink="http://www.w3.org/1999/xlink">
    <!-- Generator: Sketch 53 (72520) - https://sketchapp.com -->
    <title>Union_25</title>
    <desc>Created with Sketch.</desc>
    <g id="Page-1" stroke="none" stroke-width="1" fill="none" fill-rule="evenodd">
        <g id="Artboard-3" transform="translate(-312.000000, -66.000000)" fill="#000000" fill-rule="nonzero">
            <path d="M318.814465,76.6572844 C318.252536,76.095326 318.252536,75.1842427 318.814465,74.6222844 L320.159465,73.2792844 L314.138465,73.2792844 C313.615495,73.2930742 313.12624,73.0219536 312.860694,72.5712074 C312.595147,72.1204612 312.595147,71.5611075 312.860694,71.1103613 C313.12624,70.6596151 313.615495,70.3884945 314.138465,70.4022844 L320.119465,70.4022844 L318.819465,69.1022844 C318.262643,68.5405951 318.263501,67.6348051 318.821386,67.074172 C319.379271,66.5135389 320.285046,66.5082297 320.849465,67.0622844 L324.599465,70.8082844 C324.878166,71.0863529 325.030382,71.4667134 325.020465,71.8602844 C325.030224,72.2535324 324.878011,72.6335234 324.599465,72.9112844 L320.849465,76.6572844 C320.287506,77.2192133 319.376423,77.2192133 318.814465,76.6572844 Z" id="Union_25" transform="translate(318.841227, 71.864463) rotate(-360.000000) translate(-318.841227, -71.864463) "></path>
        </g>
    </g>
</svg>