<svg width="94" height="94" xmlns="http://www.w3.org/2000/svg" xmlns:xlink="http://www.w3.org/1999/xlink"><defs><path id="a" d="M0 94h93.941V.059H0z"/></defs><g fill="none" fill-rule="evenodd"><path fill="#545454" d="M0 0v17h1.355V1.355H17V0z"/><path fill="#545454" d="M0 1.936L19.063 21l.937-.936L.936 1zM77 0v1.355h15.645V17H94V0z"/><path fill="#545454" d="M74 20.064l.936.936L94 1.936 93.063 1zM92.645 77v15.645H77V94h17V77z"/><path fill="#545454" d="M74 74.936L93.063 94l.937-.936L74.936 74zM0 77v17h17v-1.355H1.355V77z"/><path fill="#545454" d="M0 93.064L.936 94 20 74.936 19.063 74z"/><g transform="translate(0 1)"><path d="M35.825 74.47c-.555.569-1.408.81-2.345.81-.896 0-1.72-.213-2.332-.81a2.323 2.323 0 0 1-.696-1.649h1.208c.015.498.241.867.582 1.123.328.242.84.327 1.294.327.498 0 .953-.085 1.322-.398.2-.156.355-.455.355-.782 0-.54-.383-.923-1.122-1.023l-1.62-.213c-1.081-.171-1.763-.84-1.763-1.933 0-.555.27-1.08.597-1.407.468-.484 1.222-.797 2.118-.797.952 0 1.804.299 2.288.91.313.384.512.796.512 1.38h-1.209a1.297 1.297 0 0 0-.412-.896c-.298-.27-.696-.384-1.18-.384-.284 0-.497 0-.838.142-.455.185-.725.569-.725.966 0 .597.37.853.966.938.399.057.967.114 1.734.242 1.024.17 1.834.91 1.834 1.99 0 .625-.227 1.109-.568 1.464M42.057 69.225c-.284-.255-.64-.47-1.165-.47-1.606 0-2.032 1.437-2.032 2.759 0 1.321.426 2.757 2.032 2.757.525 0 .881-.213 1.165-.469.597-.526.796-1.393.796-2.288 0-.896-.199-1.763-.796-2.289zm.725 8.954v-3.908c-.384.654-1.308 1.024-2.089 1.024-.839 0-1.507-.285-1.976-.725-.725-.697-1.094-1.834-1.094-3.07 0-1.195.355-2.29 1.037-2.985.47-.484 1.151-.782 2.033-.782.81 0 1.734.398 2.146 1.123l.085-.938h1.066V78.18h-1.208z" fill="#545454"/><mask id="b" fill="#fff"><use xlink:href="#a"/></mask><path fill="#545454" mask="url(#b)" d="M45.56 75.096h1.677v-1.692h-1.678zM53.3 65.715c-.64 0-1.024.398-1.024.98v1.208h2.075v1.024h-2.075v6.168h-1.208v-6.168H49.76v-1.024h1.308v-1.278c0-1.08.838-1.934 2.089-1.934.497 0 .938.057 1.336.128v1.009c-.384-.042-.683-.113-1.194-.113M58.53 75.195c-1.55 0-1.977-.981-1.977-1.947V68.94h-1.392v-1.038h1.392V66.07l1.21-.284v2.117h2.13v1.038h-2.13v4.164c0 .697.297.98.965.98.511 0 1.237-.126 1.237-.126v1.037a5.18 5.18 0 0 1-1.435.2M61.443 75.096h1.677v-1.692h-1.677zM46.786 35.994c-1.662 0-2.987.498-4.05 1.52-2.444 2.364-2.444 7.26-2.444 10.186 0 2.925 0 7.82 2.444 10.186 1.063 1.021 2.388 1.519 4.05 1.519s2.986-.498 4.05-1.52c2.444-2.364 2.444-7.26 2.444-10.185 0-2.926 0-7.822-2.444-10.186-1.064-1.022-2.388-1.52-4.05-1.52m0 24.91c-2.004 0-3.726-.682-5.117-2.03-2.649-2.542-2.989-7.306-2.989-11.174 0-3.869.34-8.633 2.99-11.174 1.363-1.324 3.083-1.993 5.116-1.993 2.033 0 3.753.669 5.116 1.993 2.65 2.541 2.99 7.305 2.99 11.174 0 3.868-.34 8.632-2.99 11.173-1.39 1.349-3.112 2.03-5.116 2.03M66.055 35.994c-1.66 0-2.984.498-4.048 1.52C59.56 39.88 59.56 44.777 59.56 47.7s0 7.818 2.447 10.186c1.064 1.021 2.388 1.519 4.048 1.519 1.661 0 2.986-.498 4.05-1.52 2.443-2.364 2.443-7.26 2.443-10.185 0-2.926 0-7.822-2.443-10.186-1.064-1.022-2.389-1.52-4.05-1.52m0 24.91c-2.002 0-3.724-.682-5.114-2.03-2.65-2.54-2.99-7.306-2.99-11.174 0-3.869.34-8.635 2.99-11.174 1.363-1.324 3.083-1.993 5.114-1.993 2.033 0 3.752.669 5.116 1.993 2.65 2.539 2.99 7.305 2.99 11.174 0 3.868-.34 8.634-2.99 11.173-1.39 1.349-3.113 2.03-5.116 2.03M27.997 59.405c-4.158 0-6.052-3.655-6.052-7.05 0-2.23.674-4.016 2.002-5.308 1.1-1.056 2.449-1.591 4.013-1.591 4.572 0 6.196 3.758 6.196 6.973 0 3.218-1.614 6.976-6.16 6.976m-.073-15.376c-2.72 0-5.167 1.548-6.494 3.892 0-3.766.277-7.916 2.328-10.144.75-.814 2.083-1.783 4.166-1.783 3.242 0 5.375 1.933 5.433 4.917h1.764c-.282-3.82-3.15-6.379-7.197-6.379-2.136 0-3.942.793-5.37 2.357-2.46 2.687-2.773 7.169-2.773 10.774 0 3.028.23 7.378 2.228 10.156.654.928 2.54 3.084 5.952 3.084 4.598 0 7.808-3.484 7.808-8.474 0-5.182-3.005-8.4-7.845-8.4M31.383 17.594v5.912c0 2.238.993 3.186 2.326 3.186 1.482 0 2.43-.978 2.43-3.186v-5.912h1.304v5.823c0 3.067-1.615 4.327-3.778 4.327-2.045 0-3.586-1.17-3.586-4.268v-5.882h1.304zM40.924 24.662c0 .193.03.37.06.533a2.012 2.012 0 0 0 1.955 1.526c1.378 0 2.178-1.126 2.178-2.77 0-1.437-.755-2.668-2.134-2.668-.888 0-1.718.638-1.97 1.616a2.117 2.117 0 0 0-.089.533v1.23zm-1.29-1.912c0-.918-.028-1.659-.058-2.34h1.17l.06 1.23h.03c.533-.875 1.377-1.394 2.548-1.394 1.733 0 3.037 1.467 3.037 3.645 0 2.578-1.57 3.852-3.26 3.852-.948 0-1.778-.414-2.207-1.125h-.03v3.896h-1.29V22.75zM52.776 18.35v2.06h1.867v.992h-1.867v3.867c0 .89.252 1.393.978 1.393.34 0 .593-.045.756-.089l.059.978c-.252.104-.652.178-1.156.178-.607 0-1.096-.193-1.407-.548-.37-.385-.504-1.023-.504-1.867v-3.912H50.39v-.993h1.11V18.69l1.275-.34zM56.82 24.01c0 1.57.904 2.756 2.179 2.756 1.244 0 2.178-1.17 2.178-2.786 0-1.215-.608-2.756-2.149-2.756-1.54 0-2.207 1.423-2.207 2.786m5.69-.074c0 2.652-1.838 3.808-3.571 3.808-1.942 0-3.438-1.423-3.438-3.69 0-2.4 1.57-3.808 3.556-3.808 2.06 0 3.452 1.497 3.452 3.69"/></g></g></svg>