<svg width="68" height="67" xmlns="http://www.w3.org/2000/svg" xmlns:xlink="http://www.w3.org/1999/xlink"><defs><path id="a" d="M0 67h66.958V.042H0z"/></defs><g fill="none" fill-rule="evenodd"><path fill="#545454" d="M.594 0v12h.956V.956h11.044V0z"/><path fill="#545454" d="M.594 1.655L14.89 15l.703-.655L1.296 1zM55.594 0v.956h11.043V12h.957V0z"/><path fill="#545454" d="M52.594 14.345l.702.655L67.594 1.655 66.89 1zM66.637 55v11.044H55.594V67h12V55z"/><path fill="#545454" d="M52.594 53.655L66.89 67l.703-.655L53.296 53zM.594 55v12h12v-.956H1.55V55z"/><path fill="#545454" d="M.594 66.345l.702.655 14.298-13.345-.702-.655z"/><g transform="translate(.594)"><path d="M25.535 53.08c-.396.405-1.003.577-1.672.577-.638 0-1.226-.152-1.661-.577a1.656 1.656 0 0 1-.497-1.175h.861a1 1 0 0 0 .415.8c.234.172.598.233.922.233.355 0 .68-.061.943-.284a.726.726 0 0 0 .253-.557c0-.385-.274-.658-.8-.73l-1.155-.151c-.77-.122-1.257-.598-1.257-1.378 0-.395.193-.77.426-1.003.334-.345.871-.568 1.51-.568.678 0 1.286.213 1.63.649.223.273.365.567.365.983h-.861a.924.924 0 0 0-.294-.638c-.213-.193-.496-.274-.84-.274-.203 0-.355 0-.598.101-.325.132-.517.405-.517.689 0 .426.263.608.689.668.284.04.689.081 1.236.173.73.121 1.306.648 1.306 1.418 0 .446-.161.79-.404 1.044M29.977 49.342a1.183 1.183 0 0 0-.83-.335c-1.146 0-1.45 1.024-1.45 1.966s.304 1.965 1.45 1.965c.374 0 .627-.152.83-.334.425-.375.567-.993.567-1.631 0-.639-.142-1.257-.567-1.631zm.517 6.381v-2.785c-.274.466-.932.73-1.49.73-.597 0-1.073-.203-1.408-.517-.517-.497-.78-1.307-.78-2.189 0-.85.253-1.63.74-2.127.334-.345.82-.557 1.449-.557.577 0 1.236.284 1.53.8l.06-.668h.76v7.313h-.861z" fill="#545454"/><mask id="b" fill="#fff"><use xlink:href="#a"/></mask><path fill="#545454" mask="url(#b)" d="M32.473 53.526h1.196V52.32h-1.196zM37.99 46.84c-.456 0-.73.283-.73.698v.861h1.48v.73h-1.48v4.397h-.86v-4.397h-.933v-.73h.932v-.911c0-.77.598-1.378 1.49-1.378.354 0 .668.04.952.091v.719c-.274-.03-.487-.08-.851-.08M41.718 53.597c-1.104 0-1.409-.7-1.409-1.388v-3.07h-.992v-.74h.992v-1.307l.862-.202v1.51h1.52v.739h-1.52v2.968c0 .497.212.699.689.699.364 0 .881-.09.881-.09v.738a3.692 3.692 0 0 1-1.023.143M43.794 53.526h1.196V52.32h-1.196zM22.369 12.54v4.214c0 1.595.707 2.271 1.658 2.271 1.056 0 1.732-.697 1.732-2.27V12.54h.93v4.151c0 2.186-1.152 3.084-2.694 3.084-1.457 0-2.556-.835-2.556-3.042V12.54h.93zM29.17 17.578c0 .137.02.264.041.38a1.434 1.434 0 0 0 1.395 1.088c.982 0 1.552-.803 1.552-1.975 0-1.024-.539-1.9-1.52-1.9-.634 0-1.226.453-1.405 1.15a1.51 1.51 0 0 0-.064.38v.877zm-.92-1.362c0-.655-.02-1.183-.042-1.669h.835l.042.877h.021c.38-.623.982-.993 1.816-.993 1.236 0 2.166 1.045 2.166 2.598 0 1.837-1.12 2.746-2.324 2.746-.676 0-1.267-.296-1.573-.803h-.022v2.778h-.919v-5.534zM37.617 13.08v1.467h1.33v.708h-1.33v2.756c0 .634.18.993.697.993.243 0 .423-.032.539-.064l.042.697c-.18.074-.465.127-.824.127-.433 0-.781-.137-1.003-.39-.264-.275-.36-.73-.36-1.331v-2.788h-.791v-.708h.792v-1.225l.908-.243zM40.5 17.113c0 1.12.644 1.965 1.552 1.965.887 0 1.553-.835 1.553-1.986 0-.866-.433-1.964-1.532-1.964-1.098 0-1.573 1.014-1.573 1.985m4.055-.052c0 1.89-1.31 2.714-2.545 2.714-1.384 0-2.45-1.014-2.45-2.63 0-1.71 1.12-2.714 2.535-2.714 1.467 0 2.46 1.066 2.46 2.63M14.926 43.238v-1.405l7.23-9.023c.728-.91 1.456-2.288 1.456-3.484 0-2.107-1.56-3.277-3.537-3.277-2.47 0-3.797 1.716-3.797 4.108H14.9c0-3.094 1.95-5.33 5.175-5.33 2.809 0 4.837 1.69 4.837 4.499 0 1.534-.832 3.094-1.768 4.238l-6.762 8.425h9.024v1.249h-10.48zM33.778 43.602c-3.406 0-5.565-2.419-5.642-5.591h1.326c.104 2.574 1.716 4.342 4.316 4.342 2.86 0 4.239-1.95 4.239-4.784 0-2.627-1.222-4.785-4.03-4.785-1.535 0-3.043.624-3.875 1.976H28.5l.416-9.595h9.83v1.222h-8.582l-.364 7.177c.884-1.43 2.574-2.002 4.186-2.002 3.589 0 5.357 2.574 5.357 6.007 0 3.38-1.794 6.033-5.565 6.033M50.082 27.09c-.65-.625-1.508-1.041-2.782-1.041s-2.132.416-2.783 1.04c-1.638 1.586-1.69 4.759-1.69 7.099s.052 5.513 1.69 7.1c.65.623 1.509 1.04 2.783 1.04s2.132-.417 2.782-1.04c1.638-1.587 1.69-4.76 1.69-7.1s-.052-5.513-1.69-7.099m.884 15.03c-.832.806-2.002 1.457-3.666 1.457-1.664 0-2.835-.65-3.667-1.456-1.872-1.795-2.132-5.097-2.132-7.932 0-2.834.26-6.137 2.132-7.931.832-.806 2.003-1.43 3.667-1.43 1.664 0 2.834.624 3.666 1.43 1.873 1.794 2.133 5.097 2.133 7.931 0 2.835-.26 6.137-2.133 7.932"/></g></g></svg>